<svg width="1200" height="480" viewBox="0 0 1200 480" fill="none" xmlns="http://www.w3.org/2000/svg">
<rect x="425.5" y="-8.5" width="349" height="349" rx="174.5" stroke="white" stroke-opacity="0.48" stroke-dasharray="8 8"/>
<rect x="283.5" y="-146.5" width="633" height="633" rx="316.5" stroke="white" stroke-opacity="0.48" stroke-dasharray="8 8"/>
<rect x="122.5" y="-307.5" width="955" height="955" rx="477.5" stroke="white" stroke-opacity="0.48" stroke-dasharray="8 8"/>
<path d="M1114.24 150.789C1106.52 164.162 1087.3 165.306 1070.11 155.385C1052.93 145.465 1044.31 128.242 1052.03 114.869L1057.46 105.457C1057.46 105.457 1086.11 98.9923 1098.53 106.163C1110.44 113.037 1119.68 141.377 1119.68 141.377L1114.24 150.789Z" fill="black" stroke="white" stroke-width="2.2" stroke-linecap="round" stroke-linejoin="round"/>
<path d="M1075.38 146.412C1092.59 156.352 1112.81 153.573 1120.53 140.204C1128.24 126.835 1120.54 107.939 1103.33 97.9985C1086.11 88.0582 1065.9 90.8378 1058.18 104.207C1050.46 117.576 1058.16 136.472 1075.38 146.412Z" fill="black" stroke="white" stroke-width="2.2" stroke-linecap="round" stroke-linejoin="round"/>
<path d="M1086.82 105.86C1087.68 106.632 1088.58 107.335 1089.43 108.108C1090.29 108.88 1091.19 109.583 1092.04 110.355C1092.27 110.578 1092.4 110.56 1092.61 110.403C1093.64 109.429 1094.64 108.524 1095.68 107.549C1095.89 107.392 1096.01 107.374 1096.24 107.598C1097.01 108.319 1097.73 108.919 1098.54 109.571C1098.76 109.794 1098.72 109.863 1098.55 109.951C1097.56 110.856 1096.52 111.83 1095.53 112.735C1095.49 112.805 1095.45 112.874 1095.28 112.962C1095.91 113.511 1096.63 114.111 1097.26 114.66C1097.35 114.711 1097.51 114.624 1097.64 114.606C1098.43 113.858 1099.18 113.179 1100.05 112.482C1100.3 112.256 1100.55 112.029 1100.8 111.803C1100.88 111.664 1101.01 111.646 1101.15 111.818C1101.92 112.539 1102.72 113.191 1103.58 113.963C1103.67 114.014 1103.63 114.084 1103.72 114.135C1102.93 114.883 1102.18 115.562 1101.44 116.241C1101.15 116.537 1100.86 116.832 1100.48 117.077C1100.27 117.233 1100.32 117.354 1100.55 117.577C1101.32 118.488 1102.1 119.4 1102.88 120.311C1103.52 121.24 1104 122.257 1104.22 123.309C1104.42 124.812 1103.87 125.973 1102.87 126.878C1102.17 127.488 1101.41 127.977 1100.38 128.122C1099.61 128.23 1098.74 128.097 1097.91 127.895C1097.82 127.844 1097.69 127.862 1097.51 127.76C1097.75 128.173 1098.02 128.517 1098.26 128.93C1098.96 130.17 1099.23 131.344 1099.03 132.52C1098.76 133.386 1098.19 134.167 1097.49 134.777C1096.57 135.543 1095.64 136.12 1094.4 136.421C1092.91 136.759 1091.38 136.527 1089.88 135.845C1087.9 134.976 1086.2 133.812 1084.54 132.578C1084.32 132.355 1084.1 132.322 1083.89 132.479C1082.89 133.384 1081.86 134.358 1080.86 135.263C1080.61 135.49 1080.57 135.559 1080.21 135.164C1079.49 134.563 1078.72 133.842 1078 133.242C1077.77 133.019 1077.81 132.949 1077.98 132.862C1079.02 131.887 1080.06 130.913 1081.14 130.059C1081.22 129.92 1081.35 129.902 1081.21 129.73C1080.58 129.181 1079.95 128.632 1079.23 128.032C1078.69 128.554 1078.07 129.024 1077.53 129.546C1076.99 130.068 1076.36 130.539 1075.83 131.061C1075.66 131.148 1075.62 131.218 1075.39 130.994C1074.62 130.273 1073.81 129.622 1073.01 128.97C1072.78 128.747 1072.82 128.678 1072.99 128.59C1074.02 127.616 1075.06 126.641 1076.15 125.787C1076.19 125.718 1076.31 125.7 1076.4 125.561C1074.59 123.965 1072.79 122.369 1070.9 120.722C1071.24 120.547 1071.45 120.39 1071.78 120.215C1072.5 119.796 1073.21 119.376 1073.8 118.975C1074.01 118.818 1074.1 118.87 1074.37 119.023C1074.91 119.521 1075.54 120.07 1076.12 120.499C1076.75 121.048 1077.44 121.078 1077.81 120.643C1081.01 117.771 1084.21 114.899 1087.36 111.906C1087.86 111.454 1087.77 110.573 1087.09 109.903C1086.41 109.233 1085.69 108.633 1085.06 108.084C1084.89 107.981 1084.84 107.86 1085.01 107.773C1085.71 107.164 1086.46 106.485 1087.17 105.875C1086.69 105.878 1086.69 105.878 1086.82 105.86ZM1081.46 125.615C1081.55 125.666 1081.59 125.787 1081.59 125.787C1082.86 126.885 1084.16 128.104 1085.63 129.045C1086.66 129.73 1087.64 130.294 1088.78 130.581C1090.7 131.139 1092.42 129.814 1092.08 128.14C1091.96 127.328 1091.45 126.571 1090.94 125.814C1089.74 124.197 1088.03 122.842 1086.42 121.539C1086.19 121.316 1086.15 121.385 1085.94 121.542C1085.36 122.133 1084.73 122.604 1084.16 123.195C1083.24 123.962 1082.41 124.779 1081.46 125.615ZM1093 122.845C1093.18 122.948 1093.67 123.135 1094.06 123.271C1095.91 123.967 1097.68 122.954 1097.47 121.261C1097.39 120.38 1096.83 119.502 1096.19 118.763C1095.19 117.629 1094.06 116.703 1092.89 115.656C1092.67 115.433 1092.54 115.451 1092.33 115.608C1091.04 116.808 1089.8 117.94 1088.42 119.089C1088.25 119.177 1088.3 119.297 1088.44 119.469C1088.75 119.744 1088.98 119.967 1089.3 120.242C1090.55 121.15 1091.58 122.025 1093 122.845Z" fill="white"/>
<path d="M164.298 457.801C173.826 493.363 143.341 527.705 97.649 539.948C51.9575 552.191 8.38465 537.693 -1.14412 502.131L-7.85016 477.104C-7.85016 477.104 29.5494 417.907 62.577 409.058C94.2368 400.574 157.592 432.774 157.592 432.774L164.298 457.801Z" fill="black" stroke="white" stroke-width="2.2" stroke-linecap="round" stroke-linejoin="round"/>
<path d="M91.3947 515.954C137.178 503.687 166.571 464.922 157.045 429.371C147.519 393.82 102.682 374.946 56.8986 387.213C11.1152 399.481 -18.2773 438.245 -8.75149 473.796C0.774328 509.347 45.6113 528.222 91.3947 515.954Z" fill="black" stroke="white" stroke-width="2.2" stroke-linecap="round" stroke-linejoin="round"/>
<path d="M42.3272 428.292C45.0738 428.149 47.7709 427.822 50.5176 427.679C53.2642 427.537 55.9614 427.209 58.708 427.067C59.466 427.061 59.6528 426.814 59.7407 426.197C59.845 422.807 59.9987 419.601 60.103 416.211C60.1909 415.594 60.3777 415.346 61.1358 415.341C63.6462 415.262 65.8709 415.061 68.3319 414.797C69.0899 414.792 69.1394 414.976 69.0021 415.409C68.8483 418.614 68.744 422.004 68.5903 425.21C68.6397 425.394 68.6891 425.579 68.5518 426.011C70.5404 425.874 72.7651 425.673 74.7537 425.536C74.9899 425.473 75.1272 425.04 75.314 424.793C75.3798 422.204 75.4952 419.8 75.7972 417.148C75.8357 416.346 75.8741 415.545 75.9125 414.744C75.8137 414.375 76.0004 414.127 76.5223 414.185C79.0327 414.105 81.4937 413.842 84.2403 413.699C84.4765 413.636 84.5259 413.82 84.7621 413.757C84.6963 416.346 84.5809 418.75 84.4656 421.154C84.4766 422.14 84.4876 423.126 84.2624 424.175C84.1746 424.792 84.4602 424.913 85.2183 424.908C88.0638 425.134 90.9093 425.36 93.7548 425.587C96.4135 426.061 98.9349 426.968 101.083 428.37C103.95 430.568 104.978 433.457 104.824 436.662C104.659 438.882 104.209 440.98 102.715 442.963C101.594 444.45 99.9021 445.694 98.1607 446.754C97.9245 446.817 97.7378 447.065 97.2653 447.192C98.3585 447.492 99.4022 447.608 100.495 447.909C103.775 448.81 106.208 450.333 107.845 452.663C108.862 454.566 109.219 456.844 109.054 459.064C108.801 461.9 108.214 464.431 106.632 467.03C104.676 470.125 101.715 472.303 98.0349 473.685C93.2228 475.567 88.3998 476.464 83.5273 477.176C82.7693 477.182 82.3463 477.493 82.2584 478.11C82.1046 481.315 82.0003 484.705 81.8466 487.911C81.8081 488.712 81.8576 488.897 80.5777 488.844C78.3529 489.045 75.8425 489.124 73.6178 489.325C72.8597 489.33 72.8102 489.145 72.9476 488.713C73.0519 485.323 73.1562 481.933 73.5461 478.664C73.4473 478.295 73.634 478.047 73.1122 477.989C71.1236 478.127 69.1351 478.264 66.9103 478.465C66.8829 480.252 66.6192 482.102 66.5918 483.89C66.5644 485.677 66.3007 487.528 66.2733 489.315C66.136 489.747 66.1854 489.932 65.4274 489.937C62.9169 490.016 60.456 490.28 57.995 490.544C57.237 490.55 57.1875 490.365 57.3248 489.933C57.4291 486.543 57.5334 483.153 57.9234 479.884C57.874 479.699 58.0607 479.451 57.9618 479.082C52.2324 479.431 46.503 479.78 40.5373 480.191C40.812 479.327 40.8999 478.71 41.1745 477.845C41.6744 475.931 42.1742 474.017 42.4873 472.351C42.5752 471.735 42.8114 471.671 43.52 471.481C45.2723 471.407 47.2609 471.27 48.9638 471.012C50.9523 470.874 52.1718 469.756 52.0619 468.402C52.6111 458.168 53.1602 447.935 53.4237 437.58C53.5005 435.977 51.8745 434.633 49.6003 434.649C47.3261 434.665 45.1014 434.866 43.1128 435.003C42.6404 435.13 42.3548 435.008 42.4921 434.576C42.6568 432.356 42.7721 429.952 42.9369 427.733C42.1404 428.539 42.1404 428.539 42.3272 428.292ZM66.5861 470.641C66.8223 470.577 67.1079 470.699 67.1079 470.699C71.085 470.424 75.3478 470.271 79.4127 469.379C82.2967 468.804 84.895 468.108 87.2955 466.674C91.4868 464.364 92.1404 459.245 88.751 456.989C87.1744 455.829 85.0376 455.413 82.9007 454.996C78.1545 454.29 72.9964 454.881 68.0745 455.409C67.3164 455.414 67.3658 455.599 67.2779 456.216C67.3 458.188 67.0363 460.038 67.0583 462.01C66.8057 464.846 66.7893 467.62 66.5861 470.641ZM81.3844 446.503C81.8568 446.376 82.9884 445.875 83.8838 445.438C88.174 443.497 89.4483 438.805 86.2457 436.301C84.6197 434.956 82.1972 434.419 79.8735 434.25C76.27 434.029 72.8147 434.362 69.0738 434.573C68.3158 434.579 68.129 434.826 68.0411 435.443C67.8984 439.635 67.7062 443.642 67.3272 447.896C67.1899 448.329 67.4756 448.45 67.9974 448.508C68.9917 448.439 69.7498 448.434 70.744 448.365C74.386 447.785 77.6051 447.516 81.3844 446.503Z" fill="white"/>
<path d="M183.944 43.9649C192.339 52.3599 189.362 66.8663 178.576 77.6527C167.79 88.439 153.283 91.4157 144.888 83.0206L138.98 77.1124C138.98 77.1124 139.88 54.5502 147.677 46.7534C155.151 39.2795 178.036 38.0567 178.036 38.0567L183.944 43.9649Z" fill="black" stroke="white" stroke-width="2.2" stroke-linecap="round" stroke-linejoin="round"/>
<path d="M172.962 71.9627C183.77 61.1547 185.728 45.5895 177.336 37.1971C168.943 28.8046 153.378 30.7629 142.57 41.5709C131.762 52.379 129.804 67.9441 138.196 76.3365C146.589 84.729 162.154 82.7708 172.962 71.9627Z" fill="black" stroke="white" stroke-width="2.2" stroke-linecap="round" stroke-linejoin="round"/>
<path d="M167.054 60.6375C166.487 61.5732 165.581 62.4246 164.339 63.1919C163.125 63.9615 161.635 64.5732 159.866 65.027C158.128 65.483 156.258 65.6944 154.256 65.661L152.877 67.9345L149.977 67.716L151.355 65.4425C148.661 65.0634 146.735 64.3411 145.577 63.2755C144.418 62.2099 144.304 60.9099 145.235 59.3755L150.679 59.7856C150.326 60.5221 150.329 61.1583 150.688 61.6941C151.059 62.2112 151.815 62.5812 152.955 62.804L156.699 56.629C154.899 56.1607 153.47 55.7205 152.413 55.3083C151.368 54.8773 150.615 54.2727 150.154 53.4944C149.722 52.7183 149.881 51.7128 150.629 50.4778C151.571 48.9247 153.211 47.7079 155.549 46.8274C157.898 45.9282 160.522 45.4997 163.421 45.5419L164.799 43.2684L167.7 43.4869L166.321 45.7604C168.848 46.1073 170.628 46.7893 171.66 47.8062C172.734 48.8067 172.903 50.0914 172.17 51.6602L166.726 51.2501C166.988 50.6633 166.943 50.1218 166.591 49.6256C166.25 49.1108 165.61 48.7299 164.671 48.4831L160.995 54.5459C162.807 54.9954 164.235 55.4356 165.28 55.8666C166.337 56.2788 167.081 56.873 167.513 57.649C167.955 58.4063 167.803 59.4025 167.054 60.6375ZM155.908 50.6993C155.443 51.4665 155.437 52.0922 155.89 52.5764C156.372 53.0628 157.204 53.4874 158.384 53.8502L161.821 48.1804C160.485 48.1776 159.283 48.3903 158.215 48.8186C157.176 49.2491 156.407 49.876 155.908 50.6993ZM155.856 63.0225C157.244 62.9901 158.469 62.74 159.53 62.2721C160.603 61.7854 161.366 61.1679 161.82 60.4194C162.274 59.6709 162.254 59.0628 161.759 58.5951C161.306 58.1109 160.49 57.6874 159.31 57.3246L155.856 63.0225Z" fill="white"/>
<path d="M1087.8 417.497C1059.67 445.633 1069.64 494.25 1105.79 530.4C1141.94 566.549 1190.56 576.525 1218.7 548.39L1238.5 528.589C1238.5 528.589 1235.48 452.973 1209.35 426.843C1184.3 401.794 1107.6 397.696 1107.6 397.696L1087.8 417.497Z" fill="black" stroke="white" stroke-width="2.2" stroke-linecap="round" stroke-linejoin="round"/>
<path d="M1124.61 511.324C1088.39 475.102 1081.83 422.936 1109.95 394.809C1138.08 366.683 1190.24 373.246 1226.47 409.468C1262.69 445.691 1269.25 497.856 1241.13 525.983C1213 554.109 1160.83 547.547 1124.61 511.324Z" fill="black" stroke="white" stroke-width="2.2" stroke-linecap="round" stroke-linejoin="round"/>
<path d="M1203.96 442.077C1206.08 445.069 1207.49 448.988 1208.19 453.833C1208.93 458.59 1208.82 463.989 1207.86 470.031C1206.94 475.984 1205.09 482.015 1202.32 488.125L1207.47 495.397L1202.92 504.022L1197.77 496.75C1193.01 504.526 1188.22 509.484 1183.4 511.622C1178.58 513.76 1174.43 512.375 1170.95 507.467L1179.48 491.278C1181.27 493.347 1183.23 494.187 1185.36 493.797C1187.45 493.347 1189.59 491.518 1191.8 488.31L1177.81 468.558C1173.97 473.468 1170.71 477.271 1168.03 479.969C1165.31 482.607 1162.45 484.116 1159.44 484.495C1156.48 484.786 1153.6 482.956 1150.8 479.006C1147.28 474.038 1145.73 467.373 1146.15 459.01C1146.52 450.587 1148.7 441.949 1152.7 433.095L1147.55 425.822L1152.1 417.197L1157.25 424.47C1161.69 417.164 1166.16 412.603 1170.66 410.788C1175.17 408.824 1179.35 410.016 1183.19 414.365L1174.66 430.554C1173.21 428.963 1171.48 428.379 1169.49 428.8C1167.45 429.161 1165.43 430.621 1163.41 433.178L1177.14 452.571C1180.94 447.602 1184.2 443.798 1186.92 441.16C1189.6 438.462 1192.42 436.968 1195.38 436.677C1198.3 436.326 1201.16 438.126 1203.96 442.077ZM1158.53 463.075C1160.27 465.529 1162.18 466.383 1164.28 465.636C1166.41 464.801 1168.83 462.813 1171.52 459.67L1158.68 441.534C1156.89 445.637 1155.94 449.617 1155.83 453.473C1155.76 457.241 1156.66 460.441 1158.53 463.075ZM1196.34 479.685C1198.1 475.374 1198.96 471.274 1198.94 467.387C1198.88 463.44 1198 460.269 1196.3 457.875C1194.61 455.481 1192.71 454.731 1190.61 455.626C1188.52 456.372 1186.13 458.317 1183.44 461.459L1196.34 479.685Z" fill="white"/>
</svg>
