<svg width="189" height="208" viewBox="0 0 189 208" fill="none" xmlns="http://www.w3.org/2000/svg">
<path d="M79.193 53.7178L4.50052 76.5C4.50052 76.5 2.3171 77.5 1.50052 79C0.50271 80.8329 0.500421 81.9911 0.499427 82.4942L0.499415 82.5C0.497828 83.2913 0.498872 87.5 0.498872 87.5L2.3171 86.4204L3.70317 86.8187L6.50024 81.5L83.62 100.034L159.001 80.5L166.5 86.5C166.5 86.5 167.288 80.4786 165 77.5C163.255 75.2278 160.511 74.0417 160.511 74.0417L90.6307 53.6485C86.8927 52.5576 82.9175 52.5817 79.193 53.7178Z" fill="black" stroke="white"/>
<path d="M0.500488 83.9748C0.500488 80.3172 4.00418 77.6785 7.51948 78.6887L83.1203 100.413V207.341L8.82442 185.992C3.89582 184.576 0.500488 180.067 0.500488 174.939V83.9748Z" fill="#1538FF" stroke="white"/>
<path d="M166.741 83.9748C166.741 80.3172 163.237 77.6785 159.722 78.6887L84.1209 100.413V207.341L158.417 185.992C163.345 184.576 166.741 180.067 166.741 174.939V83.9748Z" fill="black" stroke="white"/>
<path d="M159.828 152.638C157.099 163.117 151.552 171.782 144.816 177.326C138.079 182.871 130.185 185.274 122.715 183.328C115.244 181.382 109.525 175.435 106.349 167.308C103.173 159.182 102.558 148.912 105.287 138.433C108.016 127.955 113.562 119.29 120.299 113.745C127.036 108.2 134.93 105.798 142.4 107.743C149.871 109.689 155.589 115.637 158.766 123.764C161.942 131.89 162.557 142.159 159.828 152.638Z" fill="#1538FF" stroke="black"/>
<ellipse cx="131.901" cy="151.758" rx="27.7501" ry="33.3647" transform="rotate(14.598 131.901 151.758)" fill="#060E40"/>
<path d="M178.037 156.478C175.308 166.957 169.761 175.621 163.025 181.166C156.288 186.711 148.394 189.113 140.924 187.168C133.453 185.222 127.734 179.275 124.558 171.148C121.382 163.021 120.767 152.752 123.496 142.273C126.225 131.794 131.771 123.13 138.508 117.585C145.245 112.04 153.139 109.638 160.609 111.583C168.08 113.529 173.798 119.477 176.975 127.604C180.151 135.73 180.766 145.999 178.037 156.478Z" fill="#203BE4" stroke="black"/>
<path d="M177.965 156.758C175.293 167.018 170.152 175.574 164.026 181.12C157.896 186.668 150.834 189.162 144.27 187.453C137.707 185.743 132.758 180.121 130.114 172.287C127.471 164.458 127.157 154.482 129.829 144.221C132.501 133.961 137.642 125.405 143.768 119.86C149.898 114.311 156.96 111.817 163.524 113.527C170.088 115.236 175.036 120.858 177.68 128.692C180.323 136.521 180.637 146.498 177.965 156.758Z" fill="#1538FF" stroke="white"/>
<path d="M173.619 154.404C172.019 162.122 168.532 168.664 164.212 173.005C159.888 177.35 154.783 179.447 149.908 178.437C145.034 177.427 141.183 173.473 138.942 167.768C136.704 162.067 136.103 154.678 137.703 146.96C139.302 139.241 142.79 132.7 147.11 128.359C151.434 124.014 156.538 121.916 161.413 122.926C166.288 123.937 170.139 127.89 172.379 133.596C174.618 139.296 175.219 146.685 173.619 154.404Z" fill="#2B50DF" stroke="black"/>
<path d="M168.041 153.248C166.439 160.98 163.254 167.596 159.426 172.045C155.585 176.508 151.184 178.702 147.119 177.859C143.054 177.017 139.888 173.254 138.137 167.632C136.393 162.029 136.1 154.692 137.703 146.96C139.305 139.227 142.49 132.611 146.318 128.163C150.158 123.699 154.559 121.506 158.624 122.348C162.689 123.191 165.856 126.953 167.606 132.575C169.351 138.178 169.644 145.515 168.041 153.248Z" fill="black" stroke="white"/>
<path d="M121.106 75.6842C107.543 79.8492 80.2248 88.1791 79.4559 88.1791L68.8833 85.6161L109.251 72.8008L121.106 75.6842Z" fill="white"/>
<path d="M99.6388 68.3131C86.076 72.4781 58.758 80.808 57.9891 80.808L47.4165 78.245L87.7847 65.4297L99.6388 68.3131Z" fill="white"/>
<path d="M90.0084 40.9813C92.4497 50.0923 84.6392 58.8908 72.933 62.0275C61.2268 65.1641 50.0635 61.4497 47.6222 52.3387L45.9041 45.9267C45.9041 45.9267 55.4859 30.7605 63.9475 28.4932C72.0588 26.3198 88.2903 34.5693 88.2903 34.5693L90.0084 40.9813Z" fill="black" stroke="white" stroke-width="2.2" stroke-linecap="round" stroke-linejoin="round"/>
<path d="M71.3308 55.8825C83.0605 52.7395 90.591 42.808 88.1504 33.6999C85.7099 24.5917 74.2227 19.756 62.4929 22.899C50.7632 26.042 43.2328 35.9735 45.6733 45.0816C48.1139 54.1897 59.6011 59.0254 71.3308 55.8825Z" fill="black" stroke="white" stroke-width="2.2" stroke-linecap="round" stroke-linejoin="round"/>
<path d="M58.76 33.4229C59.4637 33.3863 60.1547 33.3025 60.8584 33.266C61.5621 33.2294 62.2531 33.1456 62.9568 33.1091C63.151 33.1077 63.1989 33.0442 63.2214 32.8862C63.2481 32.0176 63.2875 31.1964 63.3142 30.3279C63.3367 30.1698 63.3846 30.1063 63.5788 30.105C64.222 30.0846 64.792 30.0332 65.4225 29.9656C65.6167 29.9643 65.6293 30.0115 65.5942 30.1223C65.5548 30.9436 65.528 31.8121 65.4887 32.6333C65.5013 32.6806 65.514 32.7279 65.4788 32.8387C65.9883 32.8035 66.5583 32.7521 67.0677 32.7169C67.1282 32.7007 67.1634 32.5899 67.2113 32.5264C67.2282 31.8632 67.2577 31.2473 67.3351 30.5679C67.3449 30.3625 67.3548 30.1572 67.3646 29.9519C67.3393 29.8574 67.3871 29.7939 67.5208 29.8087C68.164 29.7884 68.7945 29.7208 69.4982 29.6842C69.5587 29.668 69.5714 29.7153 69.6319 29.6991C69.615 30.3623 69.5855 30.9782 69.5559 31.5942C69.5588 31.8468 69.5616 32.0994 69.5039 32.3682C69.4814 32.5262 69.5545 32.5573 69.7488 32.5559C70.4778 32.6139 71.2068 32.6719 71.9358 32.7299C72.617 32.8514 73.263 33.0837 73.8133 33.4429C74.5479 34.0061 74.8111 34.7463 74.7717 35.5675C74.7295 36.1362 74.6141 36.6738 74.2313 37.1817C73.9442 37.5626 73.5108 37.8815 73.0646 38.153C73.0041 38.1692 72.9563 38.2327 72.8352 38.2651C73.1153 38.3421 73.3827 38.3718 73.6628 38.4488C74.503 38.6796 75.1264 39.0699 75.5458 39.6669C75.8062 40.1545 75.8977 40.738 75.8555 41.3067C75.7908 42.0334 75.6402 42.6818 75.2349 43.3477C74.7339 44.1407 73.9753 44.6986 73.0324 45.0526C71.7995 45.5349 70.5639 45.7647 69.3155 45.9472C69.1213 45.9486 69.013 46.0283 68.9904 46.1863C68.951 47.0076 68.9243 47.8761 68.8849 48.6973C68.8751 48.9027 68.8878 48.9499 68.5598 48.9365C67.9899 48.9878 67.3467 49.0082 66.7767 49.0596C66.5825 49.0609 66.5698 49.0137 66.605 48.9029C66.6317 48.0344 66.6585 47.1658 66.7584 46.3284C66.733 46.2338 66.7809 46.1703 66.6472 46.1555C66.1377 46.1907 65.6282 46.2258 65.0583 46.2772C65.0512 46.7351 64.9837 47.2092 64.9767 47.6671C64.9696 48.125 64.9021 48.5992 64.8951 49.0571C64.8599 49.1678 64.8725 49.2151 64.6783 49.2165C64.0352 49.2368 63.4047 49.3044 62.7742 49.372C62.5799 49.3734 62.5673 49.3261 62.6025 49.2153C62.6292 48.3468 62.6559 47.4783 62.7558 46.6408C62.7431 46.5935 62.791 46.53 62.7657 46.4355C61.2978 46.5248 59.8299 46.6141 58.3015 46.7196C58.3719 46.4981 58.3944 46.3401 58.4647 46.1185C58.5928 45.6282 58.7209 45.1379 58.8011 44.711C58.8236 44.553 58.8841 44.5368 59.0656 44.4881C59.5146 44.4692 60.0241 44.434 60.4603 44.3678C60.9698 44.3326 61.2822 44.0462 61.2541 43.6991C61.3948 41.0773 61.5355 38.4555 61.603 35.8026C61.6227 35.392 61.2061 35.0476 60.6234 35.0517C60.0408 35.0558 59.4708 35.1072 58.9613 35.1424C58.8403 35.1748 58.7671 35.1437 58.8023 35.033C58.8445 34.4643 58.874 33.8484 58.9163 33.2797C58.7122 33.4864 58.7122 33.4864 58.76 33.4229ZM64.9752 44.2727C65.0357 44.2565 65.1089 44.2876 65.1089 44.2876C66.1278 44.2172 67.2199 44.1779 68.2614 43.9496C69.0002 43.8022 69.6659 43.6239 70.2809 43.2564C71.3548 42.6647 71.5222 41.3531 70.6539 40.7751C70.2499 40.4779 69.7025 40.3713 69.155 40.2646C67.939 40.0838 66.6175 40.2352 65.3565 40.3704C65.1623 40.3718 65.175 40.419 65.1524 40.5771C65.1581 41.0823 65.0905 41.5564 65.0962 42.0616C65.0315 42.7883 65.0272 43.4987 64.9752 44.2727ZM68.7665 38.0886C68.8876 38.0562 69.1775 37.9278 69.4069 37.8157C70.506 37.3185 70.8325 36.1163 70.012 35.4748C69.5954 35.1304 68.9748 34.9927 68.3794 34.9496C67.4562 34.8929 66.571 34.9781 65.6126 35.0322C65.4183 35.0336 65.3705 35.0971 65.348 35.2551C65.3114 36.329 65.2622 37.3556 65.1651 38.4456C65.1299 38.5564 65.2031 38.5874 65.3368 38.6023C65.5915 38.5847 65.7857 38.5833 66.0405 38.5657C66.9735 38.4171 67.7983 38.3481 68.7665 38.0886Z" fill="white"/>
<path d="M146.496 14.6965C152.114 20.3138 150.122 30.0204 142.905 37.2378C135.687 44.4552 125.981 46.4469 120.363 40.8296L116.41 36.8763C116.41 36.8763 117.012 21.7794 122.229 16.5624C127.23 11.5614 142.543 10.7432 142.543 10.7432L146.496 14.6965Z" fill="black" stroke="white" stroke-width="2.2" stroke-linecap="round" stroke-linejoin="round"/>
<path d="M139.148 33.4288C146.38 26.1969 147.69 15.7819 142.074 10.1663C136.459 4.55074 126.044 5.86104 118.812 13.093C111.58 20.3249 110.27 30.7398 115.885 36.3554C121.501 41.971 131.916 40.6607 139.148 33.4288Z" fill="black" stroke="white" stroke-width="2.2" stroke-linecap="round" stroke-linejoin="round"/>
<path d="M135.194 25.8522C134.814 26.4783 134.208 27.048 133.377 27.5614C132.565 28.0764 131.567 28.4857 130.384 28.7893C129.221 29.0945 127.97 29.2359 126.63 29.2135L125.708 30.7348L123.767 30.5886L124.689 29.0673C122.886 28.8137 121.598 28.3304 120.823 27.6174C120.048 26.9043 119.971 26.0345 120.594 25.0078L124.237 25.2822C124 25.775 124.002 26.2007 124.243 26.5592C124.491 26.9052 124.997 27.1528 125.76 27.3019L128.265 23.17C127.06 22.8567 126.104 22.5621 125.397 22.2863C124.698 21.9979 124.194 21.5934 123.885 21.0726C123.596 20.5533 123.702 19.8805 124.203 19.0541C124.834 18.0149 125.931 17.2007 127.495 16.6115C129.067 16.0099 130.823 15.7232 132.763 15.7514L133.685 14.2301L135.626 14.3763L134.703 15.8976C136.394 16.1297 137.585 16.586 138.276 17.2665C138.994 17.936 139.108 18.7956 138.617 19.8453L134.974 19.5709C135.15 19.1782 135.12 18.8159 134.884 18.4839C134.656 18.1394 134.227 17.8846 133.599 17.7194L131.139 21.7762C132.352 22.077 133.307 22.3715 134.007 22.6599C134.714 22.9357 135.212 23.3333 135.5 23.8525C135.797 24.3593 135.695 25.0259 135.194 25.8522ZM127.735 19.2023C127.424 19.7157 127.42 20.1344 127.723 20.4583C128.046 20.7838 128.603 21.0679 129.392 21.3107L131.692 17.5169C130.798 17.515 129.994 17.6573 129.279 17.9439C128.584 18.2319 128.069 18.6514 127.735 19.2023ZM127.7 27.4481C128.629 27.4264 129.449 27.259 130.159 26.9459C130.877 26.6203 131.388 26.2071 131.691 25.7063C131.995 25.2054 131.982 24.7985 131.651 24.4856C131.348 24.1616 130.801 23.8783 130.012 23.6355L127.7 27.4481Z" fill="white"/>
<path d="M61.0005 178.25L55.7349 182.199L32.9234 121.194L32.8723 121.057L32.7557 120.97L22.2505 113.064L32.4282 111.51L61.0005 119.017V178.25Z" fill="black" stroke="black"/>
<path d="M21.5005 173.249V113.766L55.5005 121.896V182.351L21.5005 173.249Z" fill="#2041FF" stroke="black"/>
<path d="M26.0005 123L50.0005 128.801V139.102L26.0005 133.301V123Z" fill="black"/>
<path fill-rule="evenodd" clip-rule="evenodd" d="M26.0005 141L32.6449 142.574V148.869L26.0005 147.295V141ZM26.0005 150.443L32.6449 152.017V158.312L26.0005 156.738V150.443ZM32.6449 162.507L26.0005 160.934V167.229L32.6449 168.802V162.507ZM34.1782 143.098L40.8227 144.671V150.967L34.1782 149.393V143.098ZM40.8227 154.115L34.1783 152.541V158.836L40.8227 160.41V154.115ZM34.1782 163.033L40.8227 164.607V170.902L34.1782 169.328V163.033ZM49.0004 146.771L42.356 145.197V151.492L49.0004 153.066V146.771ZM42.356 154.639L49.0004 156.212V162.508L42.356 160.934V154.639ZM49.0004 166.705L42.356 165.131V171.426L49.0004 173V166.705Z" fill="black"/>
</svg>
