<svg width="36" height="36" viewBox="0 0 36 36" fill="none" xmlns="http://www.w3.org/2000/svg">
<rect x="0.000488281" width="36" height="36" rx="18" fill="white"/>
<path d="M24.2617 12.3028C24.2567 12.2931 24.2484 12.2855 24.2383 12.2814C23.0713 11.7459 21.8397 11.3641 20.5744 11.1455C20.5629 11.1433 20.5511 11.1449 20.5405 11.1499C20.5299 11.1549 20.5212 11.1631 20.5156 11.1733C20.3479 11.4777 20.1956 11.7903 20.0594 12.1101C18.6956 11.903 17.3082 11.903 15.9443 12.1101C15.8073 11.7895 15.6526 11.4768 15.481 11.1733C15.4751 11.1633 15.4664 11.1553 15.4559 11.1503C15.4454 11.1453 15.4336 11.1437 15.4221 11.1455C14.1567 11.3636 12.9251 11.7455 11.7582 12.2814C11.7482 12.2856 11.7398 12.2929 11.7341 12.3021C9.40053 15.7869 8.76128 19.1861 9.07487 22.5432C9.07575 22.5514 9.07828 22.5594 9.08231 22.5666C9.08633 22.5738 9.09176 22.5802 9.09829 22.5853C10.4571 23.5914 11.9769 24.3593 13.5929 24.8564C13.6043 24.8598 13.6165 24.8596 13.6278 24.8559C13.6391 24.8522 13.6489 24.8452 13.6561 24.8357C14.0032 24.3634 14.3107 23.8633 14.5756 23.3405C14.5792 23.3333 14.5813 23.3255 14.5817 23.3174C14.5821 23.3094 14.5808 23.3014 14.5778 23.2939C14.5749 23.2864 14.5704 23.2796 14.5646 23.274C14.5588 23.2684 14.552 23.2641 14.5444 23.2613C14.0594 23.0757 13.5899 22.852 13.1403 22.5923C13.1321 22.5875 13.1253 22.5808 13.1203 22.5727C13.1154 22.5646 13.1125 22.5554 13.1119 22.546C13.1114 22.5365 13.1131 22.5271 13.1171 22.5185C13.1211 22.5099 13.1271 22.5024 13.1346 22.4966C13.2292 22.4259 13.3222 22.3531 13.4135 22.2781C13.4215 22.2715 13.4312 22.2673 13.4414 22.2659C13.4517 22.2646 13.4622 22.2661 13.4716 22.2703C16.4174 23.6147 19.6067 23.6147 22.5176 22.2703C22.5271 22.2658 22.5376 22.2641 22.5481 22.2653C22.5585 22.2666 22.5683 22.2708 22.5765 22.2774C22.6678 22.3528 22.7611 22.4259 22.856 22.4966C22.8636 22.5023 22.8697 22.5097 22.8737 22.5183C22.8777 22.5269 22.8796 22.5363 22.8791 22.5458C22.8786 22.5552 22.8758 22.5644 22.8709 22.5726C22.866 22.5807 22.8592 22.5875 22.8511 22.5923C22.4025 22.8542 21.9325 23.0778 21.4463 23.2606C21.4387 23.2635 21.4319 23.2679 21.4261 23.2736C21.4204 23.2793 21.416 23.2862 21.4131 23.2937C21.4102 23.3012 21.4089 23.3093 21.4094 23.3174C21.4098 23.3254 21.412 23.3333 21.4157 23.3405C21.685 23.8604 21.9921 24.3599 22.3345 24.8349C22.3414 24.8446 22.3512 24.8519 22.3626 24.8558C22.3739 24.8596 22.3862 24.8598 22.3976 24.8563C24.0165 24.3609 25.539 23.5929 26.8995 22.5853C26.9062 22.5804 26.9117 22.5742 26.9157 22.5671C26.9197 22.56 26.9222 22.5521 26.9229 22.5439C27.2984 18.6628 26.2944 15.2915 24.2617 12.3028ZM15.0155 20.4991C14.1286 20.4991 13.3979 19.6852 13.3979 18.6856C13.3979 17.6861 14.1145 16.8721 15.0155 16.8721C15.9237 16.8721 16.6474 17.6931 16.6332 18.6856C16.6332 19.6852 15.9165 20.4991 15.0155 20.4991ZM20.9966 20.4991C20.1097 20.4991 19.3789 19.6852 19.3789 18.6856C19.3789 17.6861 20.0955 16.8721 20.9966 16.8721C21.9048 16.8721 22.6284 17.6931 22.6143 18.6856C22.6143 19.6852 21.9048 20.4991 20.9966 20.4991Z" fill="black" fill-opacity="0.45"/>
</svg>
