<svg width="36" height="36" viewBox="0 0 36 36" fill="none" xmlns="http://www.w3.org/2000/svg">
<rect x="0.000488281" width="36" height="36" rx="18" fill="white"/>
<path fill-rule="evenodd" clip-rule="evenodd" d="M10.6163 17.0494L15.5215 19.7138C15.5215 19.7138 16.4225 20.3144 17.6391 19.7138C18.8597 19.1131 26.2444 15.3245 26.2444 15.3245C26.2444 15.3245 27.3572 14.8124 25.8363 14.0847C24.3155 13.357 19.957 11.1277 19.957 11.1277C19.957 11.1277 19.3371 10.7196 18.0742 11.3626C16.8113 12.0056 9.2533 15.9444 9.2533 15.9444C9.2533 15.9444 8.33309 16.2216 8.37544 18.1274C8.39854 18.7897 8.5256 19.9486 9.93864 20.6109C11.0212 21.2421 14.8636 23.4123 15.2214 23.6143C15.3825 24.404 16.0829 25.0005 16.9191 25.0005C17.874 25.0005 18.6518 24.2227 18.6518 23.2679C18.6518 23.2557 18.6516 23.2436 18.6514 23.2315L24.8698 19.9092C25.1569 20.1204 25.5113 20.2454 25.8941 20.2454C26.8489 20.2454 27.6267 19.4677 27.6267 18.5128C27.6267 17.558 26.8489 16.7802 25.8941 16.7802C24.9392 16.7802 24.1615 17.558 24.1615 18.5128C24.1615 18.7112 24.195 18.902 24.2568 19.0797L18.2836 22.2016C17.9661 21.7963 17.4723 21.5353 16.9191 21.5353C16.2376 21.5353 15.6463 21.9315 15.3636 22.5056L9.76538 19.348C9.76538 19.348 8.95298 18.7512 9.38036 17.315C9.44581 17.0571 9.73458 16.3948 10.6163 17.0494ZM16.9191 22.5941C16.5495 22.5941 16.2453 22.8944 16.2453 23.2679C16.2453 23.6414 16.5457 23.9417 16.9191 23.9417C17.2888 23.9417 17.5929 23.6414 17.5929 23.2679C17.5929 22.8944 17.2888 22.5941 16.9191 22.5941ZM25.8941 17.8429C25.5244 17.8429 25.2203 18.1432 25.2203 18.5167C25.2203 18.8902 25.5206 19.1905 25.8941 19.1905C26.2637 19.1905 26.5679 18.8902 26.5679 18.5167C26.5679 18.1432 26.2637 17.8429 25.8941 17.8429Z" fill="black" fill-opacity="0.45"/>
</svg>
