<svg width="339" height="40" viewBox="0 0 339 40" fill="none" xmlns="http://www.w3.org/2000/svg">
<g filter="url(#filter0_d_3606_6836)">
<path fill-rule="evenodd" clip-rule="evenodd" d="M18.9717 2C21.9652 2 24.7393 2.93954 27.0152 4.53983C26.5342 5.37296 25.4404 5.59765 24.5864 5.15465C22.9055 4.28264 20.9961 3.78995 18.9717 3.78995C12.2283 3.78995 6.76163 9.25658 6.76163 16C6.76163 18.415 7.46278 20.6663 8.67261 22.5614L14.6886 12.1414C15.3947 10.9184 16.9586 10.4994 18.1816 11.2055L11.1737 23.3435C10.4676 24.5665 8.90373 24.9856 7.68069 24.2794L7.68087 24.2791C5.97771 21.9603 4.97168 19.0977 4.97168 16C4.97168 8.26801 11.2397 2 18.9717 2ZM30.2077 7.64683L30.2075 7.64731C28.9846 6.94187 27.4212 7.361 26.7153 8.58375L19.6749 20.7781C20.8979 21.4842 22.4618 21.0651 23.1679 19.8421L29.2199 9.35969C30.4609 11.271 31.1817 13.5513 31.1817 16C31.1817 22.7434 25.7151 28.21 18.9717 28.21C16.9171 28.21 14.9811 27.7026 13.2821 26.8062C12.4327 26.3581 11.3386 26.5791 10.8584 27.4108C13.1473 29.0411 15.9475 30 18.9717 30C26.7037 30 32.9717 23.732 32.9717 16C32.9717 12.8693 31.9441 9.97861 30.2077 7.64683ZM23.1679 11.2055C21.9449 10.4994 20.381 10.9184 19.6749 12.1414L14.6886 20.778C15.9116 21.4841 17.4755 21.065 18.1816 19.842L23.1679 11.2055Z" fill="white"/>
<path d="M57.7877 7.892V24.5H55.6037V12.116L50.0837 24.5H48.5477L43.0037 12.092V24.5H40.8197V7.892H43.1717L49.3157 21.62L55.4597 7.892H57.7877ZM67.2276 24.716C65.9956 24.716 64.8756 24.436 63.8676 23.876C62.8756 23.316 62.0916 22.524 61.5156 21.5C60.9556 20.46 60.6756 19.26 60.6756 17.9C60.6756 16.556 60.9636 15.372 61.5396 14.348C62.1316 13.308 62.9316 12.516 63.9396 11.972C64.9476 11.412 66.0756 11.132 67.3236 11.132C68.5716 11.132 69.6996 11.412 70.7076 11.972C71.7156 12.516 72.5076 13.3 73.0836 14.324C73.6756 15.348 73.9716 16.54 73.9716 17.9C73.9716 19.26 73.6676 20.46 73.0596 21.5C72.4676 22.524 71.6596 23.316 70.6356 23.876C69.6116 24.436 68.4756 24.716 67.2276 24.716ZM67.2276 22.796C68.0116 22.796 68.7476 22.612 69.4356 22.244C70.1236 21.876 70.6756 21.324 71.0916 20.588C71.5236 19.852 71.7396 18.956 71.7396 17.9C71.7396 16.844 71.5316 15.948 71.1156 15.212C70.6996 14.476 70.1556 13.932 69.4836 13.58C68.8116 13.212 68.0836 13.028 67.2996 13.028C66.4996 13.028 65.7636 13.212 65.0916 13.58C64.4356 13.932 63.9076 14.476 63.5076 15.212C63.1076 15.948 62.9076 16.844 62.9076 17.9C62.9076 18.972 63.0996 19.876 63.4836 20.612C63.8836 21.348 64.4116 21.9 65.0676 22.268C65.7236 22.62 66.4436 22.796 67.2276 22.796ZM76.0271 17.876C76.0271 16.532 76.2991 15.356 76.8431 14.348C77.3871 13.324 78.1311 12.532 79.0751 11.972C80.0351 11.412 81.1071 11.132 82.2911 11.132C83.3151 11.132 84.2671 11.372 85.1471 11.852C86.0271 12.316 86.6991 12.932 87.1631 13.7V6.74H89.3711V24.5H87.1631V22.028C86.7311 22.812 86.0911 23.46 85.2431 23.972C84.3951 24.468 83.4031 24.716 82.2671 24.716C81.0991 24.716 80.0351 24.428 79.0751 23.852C78.1311 23.276 77.3871 22.468 76.8431 21.428C76.2991 20.388 76.0271 19.204 76.0271 17.876ZM87.1631 17.9C87.1631 16.908 86.9631 16.044 86.5631 15.308C86.1631 14.572 85.6191 14.012 84.9311 13.628C84.2591 13.228 83.5151 13.028 82.6991 13.028C81.8831 13.028 81.1391 13.22 80.4671 13.604C79.7951 13.988 79.2591 14.548 78.8591 15.284C78.4591 16.02 78.2591 16.884 78.2591 17.876C78.2591 18.884 78.4591 19.764 78.8591 20.516C79.2591 21.252 79.7951 21.82 80.4671 22.22C81.1391 22.604 81.8831 22.796 82.6991 22.796C83.5151 22.796 84.2591 22.604 84.9311 22.22C85.6191 21.82 86.1631 21.252 86.5631 20.516C86.9631 19.764 87.1631 18.892 87.1631 17.9ZM104.726 11.348V24.5H102.542V22.556C102.126 23.228 101.542 23.756 100.79 24.14C100.054 24.508 99.2379 24.692 98.3419 24.692C97.3179 24.692 96.3979 24.484 95.5819 24.068C94.7659 23.636 94.1179 22.996 93.6379 22.148C93.1739 21.3 92.9419 20.268 92.9419 19.052V11.348H95.1019V18.764C95.1019 20.06 95.4299 21.06 96.0859 21.764C96.7419 22.452 97.6379 22.796 98.7739 22.796C99.9419 22.796 100.862 22.436 101.534 21.716C102.206 20.996 102.542 19.948 102.542 18.572V11.348H104.726ZM113.069 24.716C112.061 24.716 111.157 24.548 110.357 24.212C109.557 23.86 108.925 23.38 108.461 22.772C107.997 22.148 107.741 21.436 107.693 20.636H109.949C110.013 21.292 110.317 21.828 110.861 22.244C111.421 22.66 112.149 22.868 113.045 22.868C113.877 22.868 114.533 22.684 115.013 22.316C115.493 21.948 115.733 21.484 115.733 20.924C115.733 20.348 115.477 19.924 114.965 19.652C114.453 19.364 113.661 19.084 112.589 18.812C111.613 18.556 110.813 18.3 110.189 18.044C109.581 17.772 109.053 17.38 108.605 16.868C108.173 16.34 107.957 15.652 107.957 14.804C107.957 14.132 108.157 13.516 108.557 12.956C108.957 12.396 109.525 11.956 110.261 11.636C110.997 11.3 111.837 11.132 112.781 11.132C114.237 11.132 115.413 11.5 116.309 12.236C117.205 12.972 117.685 13.98 117.749 15.26H115.565C115.517 14.572 115.237 14.02 114.725 13.604C114.229 13.188 113.557 12.98 112.709 12.98C111.925 12.98 111.301 13.148 110.837 13.484C110.373 13.82 110.141 14.26 110.141 14.804C110.141 15.236 110.277 15.596 110.549 15.884C110.837 16.156 111.189 16.38 111.605 16.556C112.037 16.716 112.629 16.9 113.381 17.108C114.325 17.364 115.093 17.62 115.685 17.876C116.277 18.116 116.781 18.484 117.197 18.98C117.629 19.476 117.853 20.124 117.869 20.924C117.869 21.644 117.669 22.292 117.269 22.868C116.869 23.444 116.301 23.9 115.565 24.236C114.845 24.556 114.013 24.716 113.069 24.716Z" fill="white"/>
<line x1="168.472" y1="2.18557e-08" x2="168.472" y2="32" stroke="white"/>
<path fill-rule="evenodd" clip-rule="evenodd" d="M216.46 13.9955C216.063 14.5621 215.637 16.0323 216.375 17.7352C217.48 20.285 221.899 26.2345 227.594 29.2943C230.576 30.8966 232.531 29.403 233.804 28.4304C234.128 28.1834 234.407 27.9699 234.648 27.8494C237.028 26.6595 242.638 19.945 243.148 18.8401C243.658 17.7352 244.593 15.6954 243.573 13.9955C242.553 12.2956 238.813 6.43114 233.118 3.03138C229.457 0.845531 227.062 2.70304 226.133 3.42276C226.076 3.467 226.025 3.50694 225.979 3.54137C222.579 6.09117 219.01 9.23592 216.46 13.9955ZM222.664 12.805C222.341 13.0527 221.801 13.5271 221.977 14.6041C222.239 16.2047 224.109 20.1144 226.574 23.0042C227.764 24.3992 228.897 23.9959 229.889 23.5991C231.588 22.9192 235.243 20.9643 236.518 19.8594C236.555 19.8274 236.594 19.7944 236.633 19.7603C237.283 19.2024 238.249 18.3728 237.987 17.305C237.709 16.172 235.54 11.4786 233.033 8.47037C232.195 7.46385 230.725 8.06344 230.165 8.29145C230.158 8.29449 230.151 8.29747 230.144 8.30038C227.849 9.23529 224.959 10.7652 222.664 12.805Z" fill="#836FF7"/>
<path d="M268.845 6.892V23.5H266.661V11.116L261.141 23.5H259.605L254.061 11.092V23.5H251.877V6.892H254.229L260.373 20.62L266.517 6.892H268.845ZM278.285 23.716C277.053 23.716 275.933 23.436 274.925 22.876C273.933 22.316 273.149 21.524 272.573 20.5C272.013 19.46 271.733 18.26 271.733 16.9C271.733 15.556 272.021 14.372 272.597 13.348C273.189 12.308 273.989 11.516 274.997 10.972C276.005 10.412 277.133 10.132 278.381 10.132C279.629 10.132 280.757 10.412 281.765 10.972C282.773 11.516 283.565 12.3 284.141 13.324C284.733 14.348 285.029 15.54 285.029 16.9C285.029 18.26 284.725 19.46 284.117 20.5C283.525 21.524 282.717 22.316 281.693 22.876C280.669 23.436 279.533 23.716 278.285 23.716ZM278.285 21.796C279.069 21.796 279.805 21.612 280.493 21.244C281.181 20.876 281.733 20.324 282.149 19.588C282.581 18.852 282.797 17.956 282.797 16.9C282.797 15.844 282.589 14.948 282.173 14.212C281.757 13.476 281.213 12.932 280.541 12.58C279.869 12.212 279.141 12.028 278.357 12.028C277.557 12.028 276.821 12.212 276.149 12.58C275.493 12.932 274.965 13.476 274.565 14.212C274.165 14.948 273.965 15.844 273.965 16.9C273.965 17.972 274.157 18.876 274.541 19.612C274.941 20.348 275.469 20.9 276.125 21.268C276.781 21.62 277.501 21.796 278.285 21.796ZM294.309 10.108C295.909 10.108 297.205 10.596 298.197 11.572C299.189 12.532 299.685 13.924 299.685 15.748V23.5H297.525V16.06C297.525 14.748 297.197 13.748 296.541 13.06C295.885 12.356 294.989 12.004 293.853 12.004C292.701 12.004 291.781 12.364 291.093 13.084C290.421 13.804 290.085 14.852 290.085 16.228V23.5H287.901V10.348H290.085V12.22C290.517 11.548 291.101 11.028 291.837 10.66C292.589 10.292 293.413 10.108 294.309 10.108ZM302.436 16.876C302.436 15.532 302.708 14.356 303.252 13.348C303.796 12.324 304.54 11.532 305.484 10.972C306.444 10.412 307.508 10.132 308.676 10.132C309.828 10.132 310.828 10.38 311.676 10.876C312.524 11.372 313.156 11.996 313.572 12.748V10.348H315.78V23.5H313.572V21.052C313.14 21.82 312.492 22.46 311.628 22.972C310.78 23.468 309.788 23.716 308.652 23.716C307.484 23.716 306.428 23.428 305.484 22.852C304.54 22.276 303.796 21.468 303.252 20.428C302.708 19.388 302.436 18.204 302.436 16.876ZM313.572 16.9C313.572 15.908 313.372 15.044 312.972 14.308C312.572 13.572 312.028 13.012 311.34 12.628C310.668 12.228 309.924 12.028 309.108 12.028C308.292 12.028 307.548 12.22 306.876 12.604C306.204 12.988 305.668 13.548 305.268 14.284C304.868 15.02 304.668 15.884 304.668 16.876C304.668 17.884 304.868 18.764 305.268 19.516C305.668 20.252 306.204 20.82 306.876 21.22C307.548 21.604 308.292 21.796 309.108 21.796C309.924 21.796 310.668 21.604 311.34 21.22C312.028 20.82 312.572 20.252 312.972 19.516C313.372 18.764 313.572 17.892 313.572 16.9ZM318.655 16.876C318.655 15.532 318.927 14.356 319.471 13.348C320.015 12.324 320.759 11.532 321.703 10.972C322.663 10.412 323.735 10.132 324.919 10.132C325.943 10.132 326.895 10.372 327.775 10.852C328.655 11.316 329.327 11.932 329.791 12.7V5.74H331.999V23.5H329.791V21.028C329.359 21.812 328.719 22.46 327.871 22.972C327.023 23.468 326.031 23.716 324.895 23.716C323.727 23.716 322.663 23.428 321.703 22.852C320.759 22.276 320.015 21.468 319.471 20.428C318.927 19.388 318.655 18.204 318.655 16.876ZM329.791 16.9C329.791 15.908 329.591 15.044 329.191 14.308C328.791 13.572 328.247 13.012 327.559 12.628C326.887 12.228 326.143 12.028 325.327 12.028C324.511 12.028 323.767 12.22 323.095 12.604C322.423 12.988 321.887 13.548 321.487 14.284C321.087 15.02 320.887 15.884 320.887 16.876C320.887 17.884 321.087 18.764 321.487 19.516C321.887 20.252 322.423 20.82 323.095 21.22C323.767 21.604 324.511 21.796 325.327 21.796C326.143 21.796 326.887 21.604 327.559 21.22C328.247 20.82 328.791 20.252 329.191 19.516C329.591 18.764 329.791 17.892 329.791 16.9Z" fill="white"/>
</g>
<defs>
<filter id="filter0_d_3606_6836" x="0.97168" y="0" width="337.058" height="40" filterUnits="userSpaceOnUse" color-interpolation-filters="sRGB">
<feFlood flood-opacity="0" result="BackgroundImageFix"/>
<feColorMatrix in="SourceAlpha" type="matrix" values="0 0 0 0 0 0 0 0 0 0 0 0 0 0 0 0 0 0 127 0" result="hardAlpha"/>
<feOffset dy="4"/>
<feGaussianBlur stdDeviation="2"/>
<feComposite in2="hardAlpha" operator="out"/>
<feColorMatrix type="matrix" values="0 0 0 0 0 0 0 0 0 0 0 0 0 0 0 0 0 0 0.25 0"/>
<feBlend mode="normal" in2="BackgroundImageFix" result="effect1_dropShadow_3606_6836"/>
<feBlend mode="normal" in="SourceGraphic" in2="effect1_dropShadow_3606_6836" result="shape"/>
</filter>
</defs>
</svg>
