<svg width="28" height="28" viewBox="0 0 28 28" fill="none" xmlns="http://www.w3.org/2000/svg">
<path fill-rule="evenodd" clip-rule="evenodd" d="M14 0C16.9935 0 19.7676 0.939543 22.0435 2.53983C21.5625 3.37296 20.4687 3.59765 19.6148 3.15465C17.9338 2.28264 16.0244 1.78995 14 1.78995C7.25658 1.78995 1.78995 7.25658 1.78995 14C1.78995 16.415 2.4911 18.6663 3.70093 20.5614L9.7169 10.1414C10.423 8.9184 11.9869 8.49936 13.2099 9.20548L6.20204 21.3435C5.49593 22.5665 3.93205 22.9856 2.70901 22.2794L2.70919 22.2791C1.00603 19.9603 0 17.0977 0 14C0 6.26801 6.26801 0 14 0ZM25.236 5.64683L25.2358 5.64731C24.0129 4.94187 22.4495 5.361 21.7436 6.58375L14.7032 18.7781C15.9262 19.4842 17.4901 19.0651 18.1962 17.8421L24.2483 7.35969C25.4892 9.27104 26.21 11.5513 26.21 14C26.21 20.7434 20.7434 26.21 14 26.21C11.9455 26.21 10.0094 25.7026 8.31044 24.8062C7.46102 24.3581 6.36696 24.5791 5.88676 25.4108C8.17558 27.0411 10.9758 28 14 28C21.732 28 28 21.732 28 14C28 10.8693 26.9724 7.97861 25.236 5.64683ZM18.1962 9.20548C16.9732 8.49936 15.4093 8.9184 14.7032 10.1414L9.7169 18.778C10.9399 19.4841 12.5038 19.065 13.2099 17.842L18.1962 9.20548Z" fill="black"/>
</svg>
