<svg width="32" height="32" viewBox="0 0 32 32" fill="none" xmlns="http://www.w3.org/2000/svg">
<path fill-rule="evenodd" clip-rule="evenodd" d="M3.65295 25.5453C3.34192 25.5453 3.04804 25.3976 2.87136 25.1416C0.99447 22.4223 0 19.4078 0 15.9999C0 7.1634 7.1634 0 15.9999 0C19.3132 0 22.3913 1.00713 24.9448 2.73197C25.132 2.85844 25.1859 3.10846 25.0729 3.30412L24.4884 4.31653C24.3579 4.54257 24.0603 4.60469 23.8446 4.45778C21.6091 2.93549 18.9084 2.04565 15.9999 2.04565C8.29318 2.04565 2.04565 8.29318 2.04565 15.9999C2.04565 18.5334 2.73918 20.9163 3.92287 22.9656C4.08669 23.2493 4.49116 23.2401 4.65512 22.9565L11.5824 10.9772C11.7391 10.7062 12.0283 10.5393 12.3413 10.5393H14.6914C14.916 10.5393 15.0567 10.7823 14.9448 10.9771L6.82807 25.1053C6.67171 25.3774 6.38178 25.5452 6.0679 25.5452L3.65295 25.5453ZM3.65295 25.5453C3.65292 25.5453 3.65292 25.5453 3.65295 25.5453C4.08047 25.5453 4.5077 25.5453 3.65295 25.5453ZM28.3469 6.4547C28.6579 6.45468 28.9518 6.60239 29.1284 6.85836C31.0053 9.57765 31.9998 12.5922 31.9998 16.0001C31.9998 24.8366 24.8364 32 15.9999 32C12.6866 32 9.60846 30.9929 7.05502 29.268C6.8678 29.1416 6.81393 28.8915 6.92689 28.6959L7.5114 27.6835C7.64191 27.4574 7.9395 27.3953 8.15524 27.5422C10.3907 29.0645 13.0914 29.9543 15.9999 29.9543C23.7066 29.9543 29.9541 23.7068 29.9541 16.0001C29.9541 13.4666 29.2606 11.0837 28.0769 9.03437C27.9131 8.75074 27.5086 8.75993 27.3447 9.04347L20.4174 21.0228C20.2607 21.2938 19.9715 21.4607 19.6585 21.4607H17.3084C17.0838 21.4607 16.9431 21.2177 17.055 21.0229L25.1717 6.89475C25.3281 6.62258 25.618 6.45478 25.9319 6.45477L28.3469 6.4547ZM28.3469 6.4547C28.3469 6.4547 28.3469 6.4547 28.3469 6.4547C27.4921 6.45473 27.9193 6.4547 28.3469 6.4547ZM17.2076 10.957C17.3645 10.6869 17.6533 10.5207 17.9656 10.5207H20.2888C20.5139 10.5207 20.6545 10.7644 20.5418 10.9593L14.7189 21.023C14.5622 21.2938 14.273 21.4606 13.96 21.4606H11.6127C11.3874 21.4606 11.2468 21.2164 11.36 21.0215L17.2076 10.957Z" fill="black"/>
</svg>
