<svg width="37" height="36" viewBox="0 0 37 36" fill="none" xmlns="http://www.w3.org/2000/svg">
<mask id="path-1-inside-1_3606_6772" fill="white">
<path fill-rule="evenodd" clip-rule="evenodd" d="M26.5 10H24.2371L19.3058 15.734L20.3212 17.1846L26.5 10ZM17.6795 20.2564L16.6641 18.8058L10.5 25.9734H12.7629L17.6795 20.2564Z"/>
</mask>
<path fill-rule="evenodd" clip-rule="evenodd" d="M26.5 10H24.2371L19.3058 15.734L20.3212 17.1846L26.5 10ZM17.6795 20.2564L16.6641 18.8058L10.5 25.9734H12.7629L17.6795 20.2564Z" fill="white"/>
<path d="M24.2371 10V9H23.7782L23.4789 9.34796L24.2371 10ZM26.5 10L27.2582 10.652L28.6789 9H26.5V10ZM19.3058 15.734L18.5477 15.082L18.0411 15.671L18.4866 16.3075L19.3058 15.734ZM20.3212 17.1846L19.502 17.7581L20.2401 18.8126L21.0794 17.8366L20.3212 17.1846ZM17.6795 20.2564L18.4377 20.9085L18.9442 20.3194L18.4987 19.6829L17.6795 20.2564ZM16.6641 18.8058L17.4833 18.2324L16.7452 17.1779L15.9059 18.1538L16.6641 18.8058ZM10.5 25.9734L9.74181 25.3213L8.32106 26.9734H10.5V25.9734ZM12.7629 25.9734V26.9734H13.2218L13.5211 26.6254L12.7629 25.9734ZM24.2371 11H26.5V9H24.2371V11ZM20.064 16.3861L24.9953 10.652L23.4789 9.34796L18.5477 15.082L20.064 16.3861ZM18.4866 16.3075L19.502 17.7581L21.1405 16.6111L20.1251 15.1606L18.4866 16.3075ZM25.7418 9.34796L19.5631 16.5326L21.0794 17.8366L27.2582 10.652L25.7418 9.34796ZM18.4987 19.6829L17.4833 18.2324L15.8449 19.3793L16.8603 20.8299L18.4987 19.6829ZM11.2582 26.6254L17.4223 19.4579L15.9059 18.1538L9.74181 25.3213L11.2582 26.6254ZM12.7629 24.9734H10.5V26.9734H12.7629V24.9734ZM16.9213 19.6044L12.0047 25.3213L13.5211 26.6254L18.4377 20.9085L16.9213 19.6044Z" fill="white" mask="url(#path-1-inside-1_3606_6772)"/>
<path d="M22.0719 25.2234L11.9405 10.75H14.9015L25.0329 25.2234H22.0719Z" stroke="white" stroke-width="1.5"/>
</svg>
